<?xml version="1.0" standalone="no"?>
<!DOCTYPE svg PUBLIC "-//W3C//DTD SVG 20010904//EN"
  "http://www.w3.org/TR/2001/REC-SVG-20010904/DTD/svg10.dtd">
<svg version="1.0" xmlns="http://www.w3.org/2000/svg"
     width="371.000000pt" height="371.000000pt" viewBox="0 0 371.000000 371.000000"
     preserveAspectRatio="xMidYMid meet">
  <metadata>
    Created by potrace 1.14, written by Peter Selinger 2001-2017
  </metadata>
  <g transform="translate(0.000000,371.000000) scale(0.100000,-0.100000)" stroke="none">
    <path d="M1606 3679 c-147 -15 -349 -75 -485 -144 -78 -39 -282 -198 -349
-270 -162 -177 -307 -423 -352 -595 -41 -159 -38 -611 5 -677 l17 -26 23 29
c13 16 26 27 28 24 3 -3 7 -40 8 -82 3 -65 0 -82 -17 -105 -62 -84 -50 -307
17 -344 19 -10 21 -9 16 6 -4 9 -7 20 -7 25 0 5 -7 16 -16 24 -22 23 -29 116
-14 173 27 96 119 233 157 233 18 0 16 -7 -8 -41 -23 -33 -20 -43 22 -64 35
-19 37 -37 5 -55 -40 -21 -64 -110 -27 -102 9 2 10 -7 5 -33 -6 -34 -6 -35 24
-29 23 5 33 1 45 -16 31 -44 -13 -68 -61 -34 -12 8 -32 14 -44 12 -19 -3 -22
-10 -24 -63 -1 -33 -4 -71 -6 -85 -5 -41 24 -35 50 10 12 22 27 40 33 40 6 0
33 -12 60 -27 l49 -26 0 -57 c0 -39 5 -62 15 -70 22 -19 18 -58 -9 -85 -23
-23 -25 -23 -70 -10 -52 16 -98 45 -121 77 -8 12 -17 19 -21 15 -3 -3 4 -20
16 -37 22 -31 73 -62 124 -74 47 -11 76 -36 76 -65 1 -79 51 -218 119 -331
236 -394 605 -671 1007 -755 131 -28 186 -23 276 23 86 45 99 55 153 131 42
58 70 109 79 143 3 13 28 50 55 83 53 63 61 78 37 69 -9 -3 -20 3 -28 15 -7
12 -18 21 -24 21 -16 0 -6 37 12 44 9 4 14 21 14 50 0 40 3 46 25 52 14 3 26
12 26 20 2 17 3 21 18 62 7 17 16 32 21 32 17 0 17 51 -1 74 -11 13 -19 29
-19 34 0 5 -7 15 -15 22 -8 7 -15 23 -15 36 0 15 -6 24 -15 24 -8 0 -15 4 -15
9 0 16 21 24 33 12 14 -14 27 -14 27 -1 0 6 -6 10 -14 10 -11 0 -13 7 -7 28 5
15 6 42 4 59 -6 38 -16 35 -76 -21 -29 -28 -45 -36 -75 -36 -44 0 -47 2 -93
60 l-36 45 -69 -3 c-38 -1 -82 -3 -98 -5 -34 -2 -52 19 -43 54 11 42 31 60 75
66 51 7 53 17 8 38 -31 15 -36 15 -67 -3 -46 -25 -79 -76 -79 -123 0 -52 8
-67 43 -85 25 -13 34 -14 54 -3 19 10 31 10 57 1 18 -7 39 -12 48 -12 22 0 50
-35 54 -67 1 -15 -6 -42 -17 -59 -10 -17 -19 -36 -19 -42 0 -16 57 3 101 34
39 27 73 27 63 0 -3 -8 1 -25 8 -38 8 -13 13 -34 13 -48 -5 -95 -1 -88 -47
-94 -123 -16 -162 -15 -190 5 -32 23 -111 49 -150 49 -23 0 -27 4 -25 23 2 20
-3 22 -45 25 -27 2 -48 8 -48 14 0 7 -5 7 -14 -1 -9 -8 -22 -9 -37 -3 -62 24
-98 30 -144 26 -154 -13 -168 -50 -26 -68 54 -7 116 -40 106 -56 -3 -5 7 -10
22 -12 34 -4 42 -25 11 -30 -23 -4 -23 -4 5 -18 15 -7 27 -19 27 -27 0 -7 5
-13 10 -13 12 0 12 2 -1 37 -5 15 -7 24 -3 21 4 -4 15 -3 26 3 31 17 140 13
176 -5 17 -9 47 -16 66 -16 53 0 146 -38 156 -63 10 -29 7 -33 -37 -42 -40 -9
-236 -7 -265 1 -28 8 -21 -14 10 -33 15 -10 29 -20 32 -24 3 -3 15 -11 27 -18
12 -6 20 -17 18 -24 -6 -15 48 -47 81 -47 13 0 33 9 44 20 21 21 37 23 80 11
16 -4 25 -14 25 -26 0 -14 7 -20 22 -20 16 0 28 -11 42 -39 11 -21 18 -43 15
-48 -10 -15 -46 25 -41 44 6 22 -8 24 -17 3 -3 -8 -14 -15 -25 -15 -30 0 -35
-17 -12 -47 14 -16 18 -30 12 -37 -5 -6 -10 -15 -11 -21 -2 -5 -5 -16 -7 -22
-3 -7 0 -26 5 -43 11 -31 4 -44 -21 -34 -12 4 -14 0 -10 -17 4 -14 2 -20 -5
-16 -5 4 -37 0 -70 -8 -44 -12 -66 -13 -87 -5 -14 6 -31 7 -37 4 -30 -19 -175
9 -166 31 2 5 -10 12 -26 16 -16 5 -41 19 -55 32 -14 13 -47 34 -73 47 -26 13
-45 27 -42 31 2 4 -9 20 -24 35 -66 66 -87 121 -97 244 -3 41 -9 77 -14 80 -4
3 -15 19 -24 35 -9 17 -24 45 -33 62 -15 28 -16 36 -4 58 10 19 11 36 3 68 -6
29 -6 51 1 66 8 18 7 26 -6 35 -13 10 -13 13 -1 25 16 15 14 103 -2 107 -21 6
-84 -89 -91 -136 -4 -25 -11 -54 -17 -65 -6 -11 -10 -50 -8 -86 1 -37 -2 -70
-7 -73 -29 -18 -73 34 -51 61 11 12 10 17 -3 27 -16 12 -17 32 -2 103 4 24 14
34 36 42 29 10 30 13 24 52 -4 26 -2 46 5 56 9 10 9 17 1 25 -7 7 -12 23 -12
36 0 13 -5 33 -11 44 -8 15 -8 22 1 28 6 4 10 19 8 33 -2 17 4 31 17 40 16 13
17 17 6 31 -8 9 -10 26 -6 45 5 23 1 35 -15 51 -18 18 -20 26 -12 44 6 11 13
31 15 43 4 19 1 23 -18 23 -29 0 -37 20 -17 43 10 11 11 17 4 17 -7 0 -12 7
-12 15 0 18 12 19 27 4 9 -9 12 -1 11 31 0 33 -5 44 -20 48 -11 2 -24 16 -29
29 -11 31 -12 46 0 39 5 -3 14 9 22 27 25 64 104 101 127 60 6 -9 28 -19 52
-22 38 -5 44 -10 54 -41 8 -24 18 -36 34 -38 15 -2 22 2 22 12 0 10 9 16 24
16 34 0 39 13 19 48 -15 26 -15 32 -4 46 8 9 18 13 22 9 10 -11 15 -80 6 -89
-12 -13 -8 -34 8 -34 8 0 15 7 15 16 0 12 8 14 45 8 53 -7 75 6 106 69 28 54
56 50 113 -17 39 -45 50 -53 74 -48 15 2 36 12 47 22 30 26 46 28 89 14 21 -8
40 -14 42 -14 11 0 14 71 4 90 -15 29 -124 98 -174 111 -101 25 -156 43 -226
69 -41 16 -91 29 -110 28 -80 -1 -90 1 -90 22 0 11 7 23 15 26 8 4 15 12 15
20 0 16 -36 37 -50 29 -10 -6 -50 29 -50 45 0 15 -6 12 -36 -15 -33 -30 -48
-32 -39 -5 4 12 0 31 -8 43 -22 33 -28 78 -17 116 8 28 6 39 -12 64 -12 17
-17 27 -10 23 14 -9 16 16 3 42 -21 40 -41 91 -41 106 0 9 10 30 22 46 24 33
58 39 78 15 16 -19 29 -19 53 2 23 21 205 60 341 72 62 6 138 5 200 -1 56 -5
151 -11 211 -13 310 -12 441 -22 470 -37 51 -28 108 -93 101 -116 -5 -15 -1
-22 14 -27 22 -7 25 -30 10 -71 -7 -18 -7 -30 0 -39 8 -9 8 -15 0 -20 -5 -3
-10 -19 -10 -35 0 -20 -7 -33 -22 -41 -14 -8 -18 -14 -10 -17 15 -5 16 -54 0
-70 -6 -6 -11 -32 -11 -56 0 -38 -4 -46 -21 -48 -31 -4 -34 -46 -4 -53 23 -6
30 -15 63 -82 8 -18 19 -33 24 -33 6 0 11 -12 13 -27 2 -20 10 -29 28 -33 16
-4 26 -14 28 -28 5 -36 -33 -43 -186 -36 -128 6 -140 5 -177 -15 -22 -11 -46
-21 -53 -21 -29 0 -71 -31 -89 -67 -24 -46 -27 -104 -9 -180 13 -58 13 -74 1
-122 -7 -27 14 -151 26 -151 8 0 33 -90 30 -109 -1 -7 1 -20 5 -30 5 -12 9 -7
13 19 5 28 11 35 29 35 12 0 27 7 32 15 10 16 3 57 -12 76 -5 7 -13 38 -18 69
-5 32 -18 76 -29 99 -32 69 -34 83 -11 89 22 6 27 36 9 54 -15 15 14 63 38 63
12 0 15 -8 10 -39 l-5 -39 45 -5 c25 -3 49 -10 53 -17 13 -20 61 -40 139 -56
42 -8 83 -17 91 -19 11 -4 21 10 33 45 11 32 27 54 43 63 32 17 124 132 176
220 38 66 89 209 103 292 3 22 17 77 31 121 19 64 22 87 14 108 -14 39 -12 62
8 82 38 39 14 358 -32 416 -15 20 -36 30 -79 39 -55 11 -64 17 -160 114 -75
75 -111 119 -135 168 -33 66 -131 173 -173 189 -10 4 -43 26 -72 48 -30 22
-58 40 -64 40 -5 0 -23 6 -39 14 -271 130 -390 171 -534 186 -143 15 -300 19
-394 9z"/>
  </g>
</svg>
